# xmcd
#
# Track frame offsets:
#   150
#   14263
#   32530
#   46259
#   60020
#   71925
#   89077
#   106182
#   118381
#   133294
#   146453
#   160661
#   176773
#   191649
#   207679
#   223178
#   239276
#   254182
#   268910
#   283838
#
# Disc length: 4055 seconds
#
# Revision: 0
# Processed by: cddbd v1.5.2PL0 Copyright (c) Steve Scherf et al.
# Submitted via: uFREEDB ActiveX Control 1.5
#
DISCID=430fd514
DTITLE=Barretos - As Vinte Mais - Barretos - As Vinte Mais
DYEAR=2007
DGENRE=Country
TTITLE0=Queimando Gasolina
TTITLE1=Gavião
TTITLE2=Roela do Eno
TTITLE3=Nois enverga mais não quebra
TTITLE4=Na saideira
TTITLE5=Eu já fui de você
TTITLE6=Barquinho
TTITLE7=Bão tamém
TTITLE8=Na vara
TTITLE9=Leilão
TTITLE10=Ela encasquetou
TTITLE11=Fujona
TTITLE12=Que percar que nada
TTITLE13=Amor descontrolado
TTITLE14=A malvada
TTITLE15=Saudade do Pica Pau
TTITLE16=Forró doido
TTITLE17=Que será
TTITLE18=Pensão alimentícia
TTITLE19=Se não tivesse ido
EXTD=
EXTT0=
EXTT1=
EXTT2=
EXTT3=
EXTT4=
EXTT5=
EXTT6=
EXTT7=
EXTT8=
EXTT9=
EXTT10=
EXTT11=
EXTT12=
EXTT13=
EXTT14=
EXTT15=
EXTT16=
EXTT17=
EXTT18=
EXTT19=
PLAYORDER=
